<svg id="Layer_1" data-name="Layer 1" xmlns="http://www.w3.org/2000/svg" viewBox="0 0 40 40"><defs><style>.cls-1{fill:#002d3f;}</style></defs><title>Artboard 1 copy 4</title><path class="cls-1" d="M18.88,20.52s0,0,0,0a.8.8,0,0,0,.55.08h.05A.74.74,0,0,0,20,20v0a2.05,2.05,0,0,1,.12-.4,3.88,3.88,0,0,1,.22-.46,3.15,3.15,0,0,1,.63-.76,2.59,2.59,0,0,1,1.81-.6,1.85,1.85,0,0,1,1.56.76,3,3,0,0,1,.44,1.92,7.6,7.6,0,0,1-.54,2.19,11,11,0,0,1-1.07,2.07,15.64,15.64,0,0,1-1.42,1.9c-.27.31-.54.6-.81.86a7.32,7.32,0,0,1-.83.72L19.7,28c-.31-.17-.63-.37-1-.61a17,17,0,0,1-1.87-1.46,12.51,12.51,0,0,1-1.59-1.72,8.22,8.22,0,0,1-.63-1,7.8,7.8,0,0,1-.49-1,3.17,3.17,0,0,1-.2-2,2.43,2.43,0,0,1,.17-.42,1.5,1.5,0,0,1,.27-.34,1.84,1.84,0,0,1,.77-.46,2.31,2.31,0,0,1,.73-.11,3.79,3.79,0,0,1,1.23.23,3.13,3.13,0,0,1,.87.49,3,3,0,0,1,.37.34l.18.2.15.19,0,0,0,.05.14.1Zm.11-2-.12-.1a4.62,4.62,0,0,0-1.29-.7,5.41,5.41,0,0,0-1.4-.28,3.8,3.8,0,0,0-1.49.19,3.4,3.4,0,0,0-1.3.82,2.71,2.71,0,0,0-.49.65,3.77,3.77,0,0,0-.29.71,3.89,3.89,0,0,0-.1,1.49,5.25,5.25,0,0,0,.35,1.36,8.53,8.53,0,0,0,.57,1.2A10,10,0,0,0,14.15,25a13.54,13.54,0,0,0,1.77,1.91,18.26,18.26,0,0,0,2,1.58c.41.27.76.49,1.11.68a4.29,4.29,0,0,0,.64.3l.22.08h.41l.11,0a1.16,1.16,0,0,0,.26-.11l0,0,.18-.12a9.21,9.21,0,0,0,1-.87c.3-.3.59-.6.88-.94a16.56,16.56,0,0,0,1.55-2.06,13.72,13.72,0,0,0,1.19-2.31,8.76,8.76,0,0,0,.63-2.6,5,5,0,0,0-.09-1.41,4.09,4.09,0,0,0-.57-1.38,3.05,3.05,0,0,0-1.19-1,3.63,3.63,0,0,0-1.48-.36,4.16,4.16,0,0,0-1.46.19,3.9,3.9,0,0,0-1.32.73,4.15,4.15,0,0,0-.95,1.12l-.11.18Z"/><path class="cls-1" d="M25,12l5.81,4.4-.07,2-.16,6.77-.06,4.51,0,4.3c-5.37,0-10.46-.06-15.39-.06l-6.87,0L8.08,25.3l-.17-8.86L19.33,7.68,25,12Zm.19-3.31h2.38c0,.26,0,.53,0,.8v2.77c0,.05,0,.1,0,.15L25.74,11l-.53-.39,0-1.94Zm6.59,7-3-2.31,0-1.07V9.5c0-.47,0-.93,0-1.41a.58.58,0,0,0-.58-.55H24.59a.59.59,0,0,0-.58.57L24,9.7,19.69,6.45a.6.6,0,0,0-.72,0L6.85,15.6a.68.68,0,0,0-.26.53l.21,9.19L7,34.52a.6.6,0,0,0,.59.58H15.2c5.18,0,10.58,0,16.12-.06a.25.25,0,0,0,.25-.24l.29-9.32L32,20.8,32,16.12a.6.6,0,0,0-.23-.47Z"/></svg>