<svg id="Layer_1" data-name="Layer 1" xmlns="http://www.w3.org/2000/svg" viewBox="0 0 40 40"><defs><style>.cls-1{fill:#002d3f;}</style></defs><title>Artboard 1 copy 3</title><path class="cls-1" d="M29.93,23.19a17.68,17.68,0,0,1,.6,1.87A17.77,17.77,0,0,1,31,27c.08.5.15,1,.18,1.52-.69.29-1.38.6-2.06.93v-.1c0-1.26-.08-2.52-.14-3.78s-.11-2.32-.18-3.47l.57-.27c.21.46.42.91.6,1.38Zm-4.66,8.37c-1,.62-2,1.28-2.91,2s-1.6,1.2-2.4,1.81c-.78-.65-1.56-1.29-2.39-1.88a33.92,33.92,0,0,0-2.94-1.94c-1-.61-2.05-1.16-3.1-1.68-.9-.45-1.8-.85-2.73-1.27.1-.45.21-.92.33-1.38l.47-1.87.5-1.86c.14-.51.27-1,.4-1.53l.58.27,4.42,2c1.47.66,2.95,1.31,4.42,1.94l7.61-3.46c0,1,0,2,0,2.95,0,1.26.08,2.52.12,3.79l0,.75c-.84.45-1.66.92-2.46,1.43ZM4,17.65,19.9,11.82c1.37.55,2.76,1.08,4.14,1.6s2.9,1.07,4.35,1.58,2.9,1,4.36,1.54q1.59.55,3.18,1.08l-7.45,3.27-.39.17L21.47,17.4s0,0,0-.07c0-.61-.69-1.09-1.57-1.09h0a2,2,0,0,0-1.08.3,1,1,0,0,0-.49.79c0,.62.69,1.09,1.57,1.09h0a2.08,2.08,0,0,0,.71-.12l6.08,3.39-6.78,3q-2.13-1-4.28-1.95l-4.27-1.93L7.07,19,4,17.65Zm33.44-.55h0C36,16.54,34.6,16,33.15,15.44s-2.89-1.07-4.34-1.61-2.9-1-4.35-1.57-2.91-1-4.38-1.48h0a.57.57,0,0,0-.34,0L2.33,17.09a.55.55,0,0,0-.32.28.57.57,0,0,0,.27.75h0c1.45.69,2.92,1.37,4.38,2L9.6,21.51c-.22.52-.42,1-.62,1.59S8.56,24.33,8.36,25,8,26.22,7.84,26.87s-.27,1.27-.37,2v0a.61.61,0,0,0,.39.65A25.45,25.45,0,0,1,11,31c1,.54,2,1.12,3,1.71.49.29,1,.61,1.45.91s.95.63,1.42,1c.95.64,1.85,1.34,2.74,2.05l0,0a.6.6,0,0,0,.77,0c.42-.36.89-.7,1.36-1s.94-.67,1.41-1c.95-.64,1.92-1.25,2.89-1.86.6-.37,1.2-.72,1.81-1.07,0,.51,0,1,.07,1.51.07,1.26.14,2.52.25,3.78a.53.53,0,0,0,1.05,0c0-1.26,0-2.52,0-3.79,0-.73,0-1.47-.05-2.2.95-.53,1.91-1,2.89-1.46h0a.62.62,0,0,0,.34-.55,17.88,17.88,0,0,0-.22-2.12,17.73,17.73,0,0,0-.47-2,17.08,17.08,0,0,0-.73-2,12.05,12.05,0,0,0-.68-1.4L37.51,18a.48.48,0,0,0,.25-.27.5.5,0,0,0-.28-.64Z"/></svg>