<svg id="Layer_1" data-name="Layer 1" xmlns="http://www.w3.org/2000/svg" viewBox="0 0 40 40"><defs><style>.cls-1{fill:#003b48;}</style></defs><title>Artboard 1</title><path class="cls-1" d="M3.76,34.27a.63.63,0,0,1-.63-.61l-.6-22.42a.63.63,0,0,1,.63-.65l33.68-.21h0a.63.63,0,0,1,.63.63h0l-.25,22.32a.63.63,0,0,1-.63.62l-32.82.32Zm.05-22.41L4.39,33,36,32.71l.24-21.06Z"/><path class="cls-1" d="M22.4,16a2.35,2.35,0,0,1,0,.59v.59c0,.4,0,.79,0,1.18s0,.79-.06,1.18,0,.79,0,1.18l-.59-.58,1.15,0H24l1.15,0,1.16,0a.63.63,0,0,1,.64.62v0l0,1.62c0,.54,0,1.08,0,1.62v0a.64.64,0,0,1-.65.62h0c-.77,0-1.54,0-2.31-.07l-1.16,0-1.15,0,.52-.52c0,.41,0,.82,0,1.22s0,.82,0,1.23l0,1.22q0,.61,0,1.23a.63.63,0,0,1-.62.64H18.33a.64.64,0,0,1-.64-.64h0c0-.82,0-1.63,0-2.45l0-1.22V23.92l.57.58H17.17l-1.14,0-1.16,0-1.16,0a.64.64,0,0,1-.64-.63h0l0-1.62c0-.54,0-1.08,0-1.62v0a.62.62,0,0,1,.64-.62h0c.77,0,1.54,0,2.32.07l1.14.05,1.16,0-.5.5V19.47l0-1.21-.07-2.43a.58.58,0,0,1,.57-.61h0l1.7-.05.85,0,.43,0h.31l.18,0a.79.79,0,0,1,.31.17A.88.88,0,0,1,22.4,16Zm-1.46,0a.65.65,0,0,0,.2.45.68.68,0,0,0,.22.12l.13,0h-.17l-.43,0-.86,0-1.69-.06.61-.61-.08,2.43,0,1.21v1.21a.5.5,0,0,1-.51.5h0l-1.15,0L16,21.25l-2.32.08.65-.65c0,.54,0,1.08,0,1.62l0,1.62-.64-.64h1.15l1.16,0,1.15,0h1.16a.59.59,0,0,1,.57.58v1.22l0,1.23c0,.81,0,1.63,0,2.44l-.65-.65H20c.56,0,1.11,0,1.67,0L21,28.8l0-1.23,0-1.22c0-.41,0-.82,0-1.23s0-.81,0-1.22a.52.52,0,0,1,.52-.52h0l1.15,0,1.16,0c.77,0,1.54-.06,2.31-.07l-.63.66c0-.54,0-1.08,0-1.62l0-1.62.64.64c-.39,0-.77,0-1.16,0s-.77,0-1.15,0H22.83l-1.15,0a.58.58,0,0,1-.59-.55h0v0c0-.39,0-.78-.05-1.18s0-.79-.06-1.18,0-.79,0-1.18v-.59A2.33,2.33,0,0,1,20.94,16Z"/><path class="cls-1" d="M28.12,10.6H26.85a4,4,0,0,0-3.88-4H17a4,4,0,0,0-3.88,4.05H11.88A5.3,5.3,0,0,1,17,5.28H23A5.32,5.32,0,0,1,28.12,10.6Z"/></svg>